/kaggle/working/opencap-processing/OpenCapData_ab7eb7cf-817d-4035-a30b-ee68773906cb/OpenSimData/Dynamics/Suhasno_1/GRF_resultant_Suhasno_1_Suhasno_1_window_0.mot
version=1
nRows=20
nColumns=19
inDegrees=yes
endheader 
time	ground_force_right_vx	ground_force_right_vy	ground_force_right_vz	ground_force_right_px	ground_force_right_py	ground_force_right_pz	ground_torque_right_x	ground_torque_right_y	ground_torque_right_z	ground_force_left_vx	ground_force_left_vy	ground_force_left_vz	ground_force_left_px	ground_force_left_py	ground_force_left_pz	ground_torque_left_x	ground_torque_left_y	ground_torque_left_z	
          0.00000000	          6.55646431	        400.92341574	         -2.67590461	          0.83219596	          0.00000000	         -0.02959225	          0.00000000	          0.47901073	          0.00000000	          6.96080113	        185.17909961	          1.01708606	          0.68027334	          0.00000000	         -0.25061447	          0.00000000	         -3.62195682	          0.00000000	
          0.05000000	         18.08324340	        509.82702991	         10.36970205	          0.84824225	          0.00000000	         -0.01913778	          0.00000000	          0.50048588	          0.00000000	         41.42530865	         78.73739714	         -9.45594417	          0.68772995	          0.00000000	         -0.26927767	          0.00000000	         -0.64455045	          0.00000000	
          0.10000000	         -4.32725173	        527.24327473	        -15.10203101	          0.86833736	          0.00000000	         -0.00825724	          0.00000000	          1.83448485	          0.00000000	        -23.03363123	         71.19543308	          1.36308393	          0.69939774	          0.00000000	         -0.27577075	          0.00000000	         -0.32252265	          0.00000000	
          0.15000000	          3.33172007	        432.00251327	        -23.87682119	          0.88361195	          0.00000000	         -0.00110292	          0.00000000	          7.06866920	          0.00000000	        -41.77323037	        131.60507657	         -0.56181831	          0.71676887	          0.00000000	         -0.27065978	          0.00000000	         -0.90663024	          0.00000000	
          0.20000000	        -49.31593972	        361.67252500	         37.77347688	          0.88492376	          0.00000000	         -0.00148930	          0.00000000	          3.84413788	          0.00000000	         62.71648487	        148.32729399	        -44.30006176	          0.73386407	          0.00000000	         -0.25466229	          0.00000000	         -0.25626530	          0.00000000	
          0.25000000	        -19.99650560	        576.02468326	         -2.72109118	          0.88079508	          0.00000000	         -0.00178477	          0.00000000	         -7.43260049	          0.00000000	         48.32842931	        100.66133008	        -41.81319199	          0.73951078	          0.00000000	         -0.24160851	          0.00000000	          0.32111535	          0.00000000	
          0.30000000	         44.38951165	        574.99672429	        -30.79856076	          0.86792862	          0.00000000	         -0.00346208	          0.00000000	         -5.59883431	          0.00000000	         -5.83086408	          5.40583403	          1.39430939	          0.75084800	          0.00000000	         -0.24453168	          0.00000000	         -0.00097363	          0.00000000	
          0.35000000	         61.47199540	        436.62950027	        -17.41645881	          0.86357297	          0.00000000	         -0.00161997	          0.00000000	          0.90895445	          0.00000000	         -1.35892068	          0.84946662	          0.24518717	          0.81028198	          0.00000000	         -0.26264587	          0.00000000	         -0.00113905	          0.00000000	
          0.40000000	          5.18984765	        406.27232763	        -22.04475943	          0.86894225	          0.00000000	          0.00371550	          0.00000000	          1.99723147	          0.00000000	         -4.52560273	          2.73280260	          1.82635760	          0.89684657	          0.00000000	         -0.28631419	          0.00000000	         -0.00368988	          0.00000000	
          0.45000000	         49.04090298	        479.12047451	        -38.27911983	          0.86659132	          0.00000000	          0.00253570	          0.00000000	         -2.60976137	          0.00000000	         -1.24786101	          0.82159700	          0.58736253	          0.98975450	          0.00000000	         -0.31040600	          0.00000000	          0.00001357	          0.00000000	
          0.50000000	         93.52130432	        732.04710314	        -31.63774005	          0.85871424	          0.00000000	         -0.00176962	          0.00000000	         -4.61569523	          0.00000000	         -0.00239792	          0.00154570	          0.00086764	          0.95973423	          0.00000000	         -0.27384046	          0.00000000	          0.00000663	          0.00000000	
          0.55000000	         67.35094945	        540.08490584	        -28.57080718	          0.85966594	          0.00000000	         -0.00167312	          0.00000000	          0.04771919	          0.00000000	         -0.71870784	          0.46604503	          0.12157332	          0.99092290	          0.00000000	         -0.26120900	          0.00000000	          0.00001821	          0.00000000	
          0.60000000	         52.70399418	        473.94190716	        -23.77638687	          0.87038677	          0.00000000	          0.00258642	          0.00000000	          1.10704073	          0.00000000	         -4.95876356	          3.35157603	         -0.03197904	          1.05393214	          0.00000000	         -0.26624554	          0.00000000	          0.00002368	          0.00000000	
          0.65000000	         93.05281317	        582.88080059	        -41.28652368	          0.89480126	          0.00000000	          0.00814046	          0.00000000	          0.67232394	          0.00000000	        -49.86617815	         41.81182079	        -10.34648479	          1.10214070	          0.00000000	         -0.26381013	          0.00000000	          0.00125622	          0.00000000	
          0.70000000	         20.79928190	        418.14718653	         -5.03267252	          0.92090148	          0.00000000	          0.01209575	          0.00000000	          0.13552411	          0.00000000	         16.63626356	        281.47175930	         -3.42945907	          1.12998694	          0.00000000	         -0.26479331	          0.00000000	          0.34875580	          0.00000000	
          0.75000000	        -14.83622323	        167.60165444	          2.69718421	          0.95320245	          0.00000000	          0.01273155	          0.00000000	         -0.12526197	          0.00000000	         23.28941421	        443.66191685	         36.06292191	          1.14147986	          0.00000000	         -0.27367843	          0.00000000	          1.09792241	          0.00000000	
          0.80000000	         18.12950177	         62.38558553	         50.37558856	          0.97836697	          0.00000000	          0.01040040	          0.00000000	         -0.05509262	          0.00000000	          7.03322379	        419.67716165	        -13.35485938	          1.15188553	          0.00000000	         -0.28150289	          0.00000000	          1.95812007	          0.00000000	
          0.85000000	         -0.82392140	         29.82818829	         29.61755595	          0.98374867	          0.00000000	         -0.00491414	          0.00000000	         -0.00965651	          0.00000000	         63.64015752	        504.82020084	         10.31035919	          1.16177425	          0.00000000	         -0.28625362	          0.00000000	          1.71209021	          0.00000000	
          0.90000000	         -9.20037627	         12.75071119	         10.40793921	          0.99742593	          0.00000000	         -0.02838095	          0.00000000	         -0.00087151	          0.00000000	         96.77594212	        641.06113782	         59.38474910	          1.17175802	          0.00000000	         -0.29148242	          0.00000000	          1.48138805	          0.00000000	
          0.95000000	         -2.66337274	          2.21384415	          1.05254107	          1.03590185	          0.00000000	         -0.05063144	          0.00000000	         -0.00000234	          0.00000000	         84.05682310	        503.06735880	         73.31567259	          1.17924914	          0.00000000	         -0.29604415	          0.00000000	         -0.38076755	          0.00000000	
